<svg width="166" height="45" viewBox="0 0 166 45" fill="none" xmlns="http://www.w3.org/2000/svg">
<path d="M4.57891 19.2678C4.57891 19.9063 5.48673 20.4549 7.30231 20.9138C7.94078 21.0535 8.51935 21.2231 9.03811 21.4226C9.55687 21.6022 10.0756 21.8715 10.5943 22.2306C11.133 22.5698 11.552 23.0287 11.8513 23.6073C12.1506 24.1859 12.3002 24.8543 12.3002 25.6124C12.3002 27.1487 11.7216 28.3358 10.5644 29.1738C9.40723 29.9919 7.98065 30.4008 6.28478 30.4008C3.21222 30.4008 1.1173 29.2137 0 26.8395L3.35188 24.954C3.81077 26.2509 4.7884 26.8993 6.28478 26.8993C7.66144 26.8993 8.34977 26.4703 8.34977 25.6124C8.34977 24.974 7.44196 24.4253 5.62637 23.9664C4.94802 23.7869 4.36942 23.6073 3.89058 23.4277C3.41174 23.2482 2.89299 22.9888 2.33435 22.6496C1.7757 22.2905 1.34674 21.8416 1.04746 21.3029C0.768137 20.7443 0.628478 20.0958 0.628478 19.3576C0.628478 17.8812 1.16717 16.724 2.24456 15.886C3.3419 15.0281 4.69862 14.5991 6.3147 14.5991C7.53174 14.5991 8.63906 14.8785 9.63666 15.4371C10.6343 15.9758 11.4223 16.7539 12.0009 17.7714L8.7089 19.5671C8.23006 18.5496 7.43201 18.0408 6.3147 18.0408C5.81593 18.0408 5.39694 18.1605 5.05775 18.3999C4.73852 18.6194 4.57891 18.9087 4.57891 19.2678ZM31.4791 14.5991C33.1949 14.5991 34.5616 15.1578 35.5792 16.2751C36.6166 17.3924 37.1354 18.8887 37.1354 20.7642V29.9819H33.2747V21.0335C33.2747 20.1357 33.0552 19.4374 32.6163 18.9386C32.1774 18.4398 31.5589 18.1904 30.7608 18.1904C29.8829 18.1904 29.1946 18.4797 28.6958 19.0583C28.217 19.6369 27.9776 20.4749 27.9776 21.5722V29.9819H24.1169V21.0335C24.1169 20.1357 23.8974 19.4374 23.4585 18.9386C23.0195 18.4398 22.4011 18.1904 21.603 18.1904C20.7451 18.1904 20.0567 18.4897 19.538 19.0882C19.0392 19.6669 18.7898 20.4948 18.7898 21.5722V29.9819H14.9292V15.0181H18.7898V16.6043C19.6876 15.2675 21.0743 14.5991 22.9497 14.5991C24.8053 14.5991 26.1619 15.3174 27.0199 16.7539C27.9975 15.3174 29.4839 14.5991 31.4791 14.5991ZM43.9757 19.2678C43.9757 19.9063 44.8835 20.4549 46.6991 20.9138C47.3375 21.0535 47.9161 21.2231 48.4349 21.4226C48.9536 21.6022 49.4724 21.8715 49.9911 22.2306C50.5298 22.5698 50.9488 23.0287 51.2481 23.6073C51.5473 24.1859 51.697 24.8543 51.697 25.6124C51.697 27.1487 51.1184 28.3358 49.9612 29.1738C48.804 29.9919 47.3774 30.4008 45.6816 30.4008C42.609 30.4008 40.514 29.2137 39.3968 26.8395L42.7487 24.954C43.2075 26.2509 44.1852 26.8993 45.6816 26.8993C47.0582 26.8993 47.7466 26.4703 47.7466 25.6124C47.7466 24.974 46.8387 24.4253 45.0231 23.9664C44.3448 23.7869 43.7662 23.6073 43.2874 23.4277C42.8085 23.2482 42.2898 22.9888 41.7311 22.6496C41.1724 22.2905 40.7435 21.8416 40.4442 21.3029C40.1649 20.7443 40.0253 20.0958 40.0253 19.3576C40.0253 17.8812 40.564 16.724 41.6413 15.886C42.7387 15.0281 44.0954 14.5991 45.7115 14.5991C46.9285 14.5991 48.0358 14.8785 49.0334 15.4371C50.031 15.9758 50.8191 16.7539 51.3977 17.7714L48.1057 19.5671C47.6268 18.5496 46.8287 18.0408 45.7115 18.0408C45.2127 18.0408 44.7937 18.1605 44.4545 18.3999C44.1353 18.6194 43.9757 18.9087 43.9757 19.2678Z" fill="#FF466A"/>
<path d="M64.8479 16.8587V9.10744H68.7086V30.0567H64.8479V28.291C63.7107 29.7474 62.0946 30.4757 59.9997 30.4757C57.9844 30.4757 56.2587 29.7175 54.8222 28.2012C53.4055 26.6649 52.6973 24.7895 52.6973 22.5748C52.6973 20.3801 53.4055 18.5147 54.8222 16.9784C56.2587 15.4421 57.9844 14.674 59.9997 14.674C62.0946 14.674 63.7107 15.4022 64.8479 16.8587ZM57.7252 25.6274C58.5429 26.4055 59.5406 26.7946 60.7179 26.7946C61.915 26.7946 62.9027 26.4055 63.6808 25.6274C64.4589 24.8294 64.8479 23.8118 64.8479 22.5748C64.8479 21.3378 64.4589 20.3303 63.6808 19.5521C62.9027 18.7541 61.915 18.355 60.7179 18.355C59.5208 18.355 58.5231 18.7541 57.7252 19.5521C56.9471 20.3303 56.558 21.3378 56.558 22.5748C56.558 23.8118 56.9471 24.8294 57.7252 25.6274ZM86.7837 24.161H75.5011C76.0002 26.0364 77.4068 26.9742 79.7208 26.9742C81.1974 26.9742 82.3149 26.4754 83.0727 25.4778L86.1852 27.2734C84.7091 29.4083 82.534 30.4757 79.661 30.4757C77.1872 30.4757 75.2018 29.7275 73.7054 28.2311C72.209 26.7347 71.4608 24.8493 71.4608 22.5748C71.4608 20.3402 72.1994 18.4648 73.6755 16.9484C75.1323 15.4321 77.0274 14.674 79.3617 14.674C81.5763 14.674 83.3821 15.4321 84.7786 16.9484C86.2151 18.4648 86.9334 20.3402 86.9334 22.5748C86.9334 22.9938 86.8837 23.5225 86.7837 24.161ZM75.4412 21.1682H83.0727C82.8536 20.1906 82.4047 19.4424 81.726 18.9237C81.0676 18.4049 80.2798 18.1455 79.3617 18.1455C78.3244 18.1455 77.4667 18.4149 76.7879 18.9536C76.1098 19.4724 75.6609 20.2105 75.4412 21.1682ZM97.9488 14.674C99.6045 14.674 100.951 15.2226 101.989 16.32C103.066 17.4373 103.605 18.9536 103.605 20.869V30.0567H99.7445V21.3478C99.7445 20.3702 99.4751 19.612 98.9364 19.0733C98.4175 18.5346 97.6993 18.2653 96.7817 18.2653C95.7641 18.2653 94.9561 18.5845 94.3575 19.2229C93.7787 19.8414 93.4896 20.7592 93.4896 21.9763V30.0567H89.629V15.0929H93.4896V16.7689C94.4072 15.3723 95.8934 14.674 97.9488 14.674ZM118.364 16.9484V15.0929H122.135V29.3384C122.135 31.6329 121.366 33.3986 119.83 34.6356C118.313 35.8526 116.478 36.4612 114.323 36.4612C110.931 36.4612 108.567 35.2441 107.231 32.81L110.523 30.9246C111.261 32.3212 112.567 33.0195 114.443 33.0195C115.66 33.0195 116.618 32.7003 117.316 32.0618C118.014 31.4234 118.364 30.5156 118.364 29.3384V27.7224C117.226 29.2387 115.63 29.9968 113.575 29.9968C111.46 29.9968 109.685 29.2586 108.248 27.7822C106.831 26.2659 106.123 24.4503 106.123 22.3354C106.123 20.2205 106.842 18.4149 108.278 16.9185C109.715 15.4221 111.48 14.674 113.575 14.674C115.63 14.674 117.226 15.4321 118.364 16.9484ZM117.167 25.2982C117.964 24.5201 118.364 23.5325 118.364 22.3354C118.364 21.1383 117.964 20.1706 117.167 19.4324C116.388 18.6543 115.391 18.2653 114.174 18.2653C112.977 18.2653 111.969 18.6543 111.151 19.4324C110.373 20.1706 109.984 21.1383 109.984 22.3354C109.984 23.5325 110.373 24.5201 111.151 25.2982C111.949 26.0564 112.956 26.4355 114.174 26.4355C115.391 26.4355 116.388 26.0564 117.167 25.2982ZM127.551 13.2973C126.912 13.2973 126.354 13.0679 125.875 12.609C125.416 12.1301 125.187 11.5715 125.187 10.933C125.187 10.2946 125.416 9.73592 125.875 9.25708C126.354 8.77824 126.912 8.53882 127.551 8.53882C128.209 8.53882 128.768 8.77824 129.227 9.25708C129.706 9.73592 129.945 10.2946 129.945 10.933C129.945 11.5715 129.706 12.1301 129.227 12.609C128.768 13.0679 128.209 13.2973 127.551 13.2973ZM129.496 30.0567H125.636V15.0929H129.496V30.0567ZM137.818 27.9019C137.818 28.6002 137.569 29.1988 137.069 29.6976C136.571 30.1963 135.972 30.4458 135.274 30.4458C134.576 30.4458 133.977 30.1963 133.478 29.6976C132.98 29.1988 132.73 28.6002 132.73 27.9019C132.73 27.2036 132.98 26.605 133.478 26.1063C133.977 25.6075 134.576 25.3581 135.274 25.3581C135.972 25.3581 136.571 25.6075 137.069 26.1063C137.569 26.605 137.818 27.2036 137.818 27.9019ZM144.898 15.0929V17.6667C145.237 16.729 145.816 16.0207 146.634 15.5419C147.452 15.0431 148.389 14.7937 149.447 14.7937V19.1032C148.27 18.9436 147.212 19.183 146.275 19.8215C145.357 20.44 144.898 21.4675 144.898 22.904V30.0567H141.037V15.0929H144.898ZM161.581 23.1734V15.0929H165.442V30.0567H161.581V28.3808C160.663 29.7774 159.177 30.4757 157.122 30.4757C155.486 30.4757 154.129 29.927 153.052 28.8297C151.994 27.7124 151.466 26.196 151.466 24.2807V15.0929H155.326V23.8018C155.326 24.7795 155.585 25.5376 156.104 26.0763C156.643 26.615 157.371 26.8844 158.289 26.8844C159.307 26.8844 160.105 26.5751 160.683 25.9566C161.282 25.3182 161.581 24.3904 161.581 23.1734Z" fill="white"/>
</svg>
