<svg width="166" height="46" viewBox="0 0 166 46" fill="none" xmlns="http://www.w3.org/2000/svg">
<path d="M4.57891 19.7678C4.57891 20.4063 5.48673 20.9549 7.30231 21.4138C7.94078 21.5535 8.51935 21.7231 9.03811 21.9226C9.55687 22.1022 10.0756 22.3715 10.5943 22.7306C11.133 23.0698 11.552 23.5287 11.8513 24.1073C12.1506 24.6859 12.3002 25.3543 12.3002 26.1124C12.3002 27.6487 11.7216 28.8358 10.5644 29.6738C9.40723 30.4919 7.98065 30.9008 6.28478 30.9008C3.21222 30.9008 1.1173 29.7137 0 27.3395L3.35188 25.454C3.81077 26.7509 4.7884 27.3993 6.28478 27.3993C7.66144 27.3993 8.34977 26.9703 8.34977 26.1124C8.34977 25.474 7.44196 24.9253 5.62637 24.4664C4.94802 24.2869 4.36942 24.1073 3.89058 23.9277C3.41174 23.7482 2.89299 23.4888 2.33435 23.1496C1.7757 22.7905 1.34674 22.3416 1.04746 21.8029C0.768137 21.2443 0.628478 20.5958 0.628478 19.8576C0.628478 18.3812 1.16717 17.224 2.24456 16.386C3.3419 15.5281 4.69862 15.0991 6.3147 15.0991C7.53174 15.0991 8.63906 15.3785 9.63666 15.9371C10.6343 16.4758 11.4223 17.2539 12.0009 18.2714L8.7089 20.0671C8.23006 19.0496 7.43201 18.5408 6.3147 18.5408C5.81593 18.5408 5.39694 18.6605 5.05775 18.8999C4.73852 19.1194 4.57891 19.4087 4.57891 19.7678ZM31.4791 15.0991C33.1949 15.0991 34.5616 15.6578 35.5792 16.7751C36.6166 17.8924 37.1354 19.3887 37.1354 21.2642V30.4819H33.2747V21.5335C33.2747 20.6357 33.0552 19.9374 32.6163 19.4386C32.1774 18.9398 31.5589 18.6904 30.7608 18.6904C29.8829 18.6904 29.1946 18.9797 28.6958 19.5583C28.217 20.1369 27.9776 20.9749 27.9776 22.0722V30.4819H24.1169V21.5335C24.1169 20.6357 23.8974 19.9374 23.4585 19.4386C23.0195 18.9398 22.4011 18.6904 21.603 18.6904C20.7451 18.6904 20.0567 18.9897 19.538 19.5882C19.0392 20.1669 18.7898 20.9948 18.7898 22.0722V30.4819H14.9292V15.5181H18.7898V17.1043C19.6876 15.7675 21.0743 15.0991 22.9497 15.0991C24.8053 15.0991 26.1619 15.8174 27.0199 17.2539C27.9975 15.8174 29.4839 15.0991 31.4791 15.0991ZM43.9757 19.7678C43.9757 20.4063 44.8835 20.9549 46.6991 21.4138C47.3375 21.5535 47.9161 21.7231 48.4349 21.9226C48.9536 22.1022 49.4724 22.3715 49.9911 22.7306C50.5298 23.0698 50.9488 23.5287 51.2481 24.1073C51.5473 24.6859 51.697 25.3543 51.697 26.1124C51.697 27.6487 51.1184 28.8358 49.9612 29.6738C48.804 30.4919 47.3774 30.9008 45.6816 30.9008C42.609 30.9008 40.514 29.7137 39.3968 27.3395L42.7487 25.454C43.2075 26.7509 44.1852 27.3993 45.6816 27.3993C47.0582 27.3993 47.7466 26.9703 47.7466 26.1124C47.7466 25.474 46.8387 24.9253 45.0231 24.4664C44.3448 24.2869 43.7662 24.1073 43.2874 23.9277C42.8085 23.7482 42.2898 23.4888 41.7311 23.1496C41.1724 22.7905 40.7435 22.3416 40.4442 21.8029C40.1649 21.2443 40.0253 20.5958 40.0253 19.8576C40.0253 18.3812 40.564 17.224 41.6413 16.386C42.7387 15.5281 44.0954 15.0991 45.7115 15.0991C46.9285 15.0991 48.0358 15.3785 49.0334 15.9371C50.031 16.4758 50.8191 17.2539 51.3977 18.2714L48.1057 20.0671C47.6268 19.0496 46.8287 18.5408 45.7115 18.5408C45.2127 18.5408 44.7937 18.6605 44.4545 18.8999C44.1353 19.1194 43.9757 19.4087 43.9757 19.7678Z" fill="#FF466A"/>
<path d="M64.8479 17.3587V9.60744H68.7086V30.5567H64.8479V28.791C63.7107 30.2474 62.0946 30.9757 59.9997 30.9757C57.9844 30.9757 56.2587 30.2175 54.8222 28.7012C53.4055 27.1649 52.6973 25.2895 52.6973 23.0748C52.6973 20.8801 53.4055 19.0147 54.8222 17.4784C56.2587 15.9421 57.9844 15.174 59.9997 15.174C62.0946 15.174 63.7107 15.9022 64.8479 17.3587ZM57.7252 26.1274C58.5429 26.9055 59.5406 27.2946 60.7179 27.2946C61.915 27.2946 62.9027 26.9055 63.6808 26.1274C64.4589 25.3294 64.8479 24.3118 64.8479 23.0748C64.8479 21.8378 64.4589 20.8303 63.6808 20.0521C62.9027 19.2541 61.915 18.855 60.7179 18.855C59.5208 18.855 58.5231 19.2541 57.7252 20.0521C56.9471 20.8303 56.558 21.8378 56.558 23.0748C56.558 24.3118 56.9471 25.3294 57.7252 26.1274ZM86.7837 24.661H75.5011C76.0002 26.5364 77.4068 27.4742 79.7208 27.4742C81.1974 27.4742 82.3149 26.9754 83.0727 25.9778L86.1852 27.7734C84.7091 29.9083 82.534 30.9757 79.661 30.9757C77.1872 30.9757 75.2018 30.2275 73.7054 28.7311C72.209 27.2347 71.4608 25.3493 71.4608 23.0748C71.4608 20.8402 72.1994 18.9648 73.6755 17.4484C75.1323 15.9321 77.0274 15.174 79.3617 15.174C81.5763 15.174 83.3821 15.9321 84.7786 17.4484C86.2151 18.9648 86.9334 20.8402 86.9334 23.0748C86.9334 23.4938 86.8837 24.0225 86.7837 24.661ZM75.4412 21.6682H83.0727C82.8536 20.6906 82.4047 19.9424 81.726 19.4237C81.0676 18.9049 80.2798 18.6455 79.3617 18.6455C78.3244 18.6455 77.4667 18.9149 76.7879 19.4536C76.1098 19.9724 75.6609 20.7105 75.4412 21.6682ZM97.9488 15.174C99.6045 15.174 100.951 15.7226 101.989 16.82C103.066 17.9373 103.605 19.4536 103.605 21.369V30.5567H99.7445V21.8478C99.7445 20.8702 99.4751 20.112 98.9364 19.5733C98.4175 19.0346 97.6993 18.7653 96.7817 18.7653C95.7641 18.7653 94.9561 19.0845 94.3575 19.7229C93.7787 20.3414 93.4896 21.2592 93.4896 22.4763V30.5567H89.629V15.5929H93.4896V17.2689C94.4072 15.8723 95.8934 15.174 97.9488 15.174ZM118.364 17.4484V15.5929H122.135V29.8384C122.135 32.1329 121.366 33.8986 119.83 35.1356C118.313 36.3526 116.478 36.9612 114.323 36.9612C110.931 36.9612 108.567 35.7441 107.231 33.31L110.523 31.4246C111.261 32.8212 112.567 33.5195 114.443 33.5195C115.66 33.5195 116.618 33.2003 117.316 32.5618C118.014 31.9234 118.364 31.0156 118.364 29.8384V28.2224C117.226 29.7387 115.63 30.4968 113.575 30.4968C111.46 30.4968 109.685 29.7586 108.248 28.2822C106.831 26.7659 106.123 24.9503 106.123 22.8354C106.123 20.7205 106.842 18.9149 108.278 17.4185C109.715 15.9221 111.48 15.174 113.575 15.174C115.63 15.174 117.226 15.9321 118.364 17.4484ZM117.167 25.7982C117.964 25.0201 118.364 24.0325 118.364 22.8354C118.364 21.6383 117.964 20.6706 117.167 19.9324C116.388 19.1543 115.391 18.7653 114.174 18.7653C112.977 18.7653 111.969 19.1543 111.151 19.9324C110.373 20.6706 109.984 21.6383 109.984 22.8354C109.984 24.0325 110.373 25.0201 111.151 25.7982C111.949 26.5564 112.956 26.9355 114.174 26.9355C115.391 26.9355 116.388 26.5564 117.167 25.7982ZM127.551 13.7973C126.912 13.7973 126.354 13.5679 125.875 13.109C125.416 12.6301 125.187 12.0715 125.187 11.433C125.187 10.7946 125.416 10.2359 125.875 9.75708C126.354 9.27824 126.912 9.03882 127.551 9.03882C128.209 9.03882 128.768 9.27824 129.227 9.75708C129.706 10.2359 129.945 10.7946 129.945 11.433C129.945 12.0715 129.706 12.6301 129.227 13.109C128.768 13.5679 128.209 13.7973 127.551 13.7973ZM129.496 30.5567H125.636V15.5929H129.496V30.5567ZM137.818 28.4019C137.818 29.1002 137.569 29.6988 137.069 30.1976C136.571 30.6963 135.972 30.9458 135.274 30.9458C134.576 30.9458 133.977 30.6963 133.478 30.1976C132.98 29.6988 132.73 29.1002 132.73 28.4019C132.73 27.7036 132.98 27.105 133.478 26.6063C133.977 26.1075 134.576 25.8581 135.274 25.8581C135.972 25.8581 136.571 26.1075 137.069 26.6063C137.569 27.105 137.818 27.7036 137.818 28.4019ZM144.898 15.5929V18.1667C145.237 17.229 145.816 16.5207 146.634 16.0419C147.452 15.5431 148.389 15.2937 149.447 15.2937V19.6032C148.27 19.4436 147.212 19.683 146.275 20.3215C145.357 20.94 144.898 21.9675 144.898 23.404V30.5567H141.037V15.5929H144.898ZM161.581 23.6734V15.5929H165.442V30.5567H161.581V28.8808C160.663 30.2774 159.177 30.9757 157.122 30.9757C155.486 30.9757 154.129 30.427 153.052 29.3297C151.994 28.2124 151.466 26.696 151.466 24.7807V15.5929H155.326V24.3018C155.326 25.2795 155.585 26.0376 156.104 26.5763C156.643 27.115 157.371 27.3844 158.289 27.3844C159.307 27.3844 160.105 27.0751 160.683 26.4566C161.282 25.8182 161.581 24.8904 161.581 23.6734Z" fill="#313132"/>
</svg>
